<svg version="1.1" id="Layer_1" xmlns="http://www.w3.org/2000/svg" xmlns:xlink="http://www.w3.org/1999/xlink" x="0px" y="0px"
	 width="100%" viewBox="0 0 500 452" enable-background="new 0 0 500 452" xml:space="preserve">
<path fill="#66A0FF" opacity="1.000000" stroke="none" 
	d="
M40.000000,1.000000 
	C40.000000,1.000000 40.500000,1.000000 41.060070,1.280417 
	C43.597240,1.706969 45.574322,1.980736 47.551445,1.981026 
	C182.777695,2.000841 318.003967,1.999848 453.230225,1.990179 
	C455.890411,1.989989 458.550629,1.866144 461.610962,1.825455 
	C482.945984,4.512146 497.987640,20.703289 500.126526,43.418938 
	C500.037842,44.715240 500.003510,45.547455 500.003479,46.379665 
	C500.000885,166.438782 500.000122,286.497925 500.008362,406.557037 
	C500.008484,408.052124 500.125153,409.547211 500.123352,411.447754 
	C497.655914,434.137695 482.049622,449.895264 459.639648,452.117828 
	C320.907043,452.028961 182.642990,452.013611 44.378941,452.006805 
	C43.550144,452.006744 42.721336,452.126160 41.491447,452.145203 
	C19.281029,449.412506 4.519222,433.960358 1.903003,410.555511 
	C1.972717,288.549957 1.984829,167.008942 1.989721,45.467930 
	C1.989754,44.638275 1.890059,43.808620 1.899884,42.572445 
	C4.305609,21.380499 16.768734,7.175930 36.951790,2.235301 
	C38.005516,1.977358 38.985619,1.418673 40.000000,1.000000 
M107.161995,403.427582 
	C109.986725,403.571472 112.811424,403.840424 115.636185,403.841125 
	C205.285706,403.863159 294.935211,403.871765 384.584747,403.851929 
	C414.493469,403.845306 433.952789,384.305969 433.959534,354.319366 
	C433.973846,290.498230 433.964539,226.677109 433.963684,162.855972 
	C433.963470,148.358749 434.107117,133.859619 433.921631,119.364738 
	C433.617828,95.626564 417.655090,76.488686 394.741394,73.447952 
	C385.067627,72.164207 375.114288,72.826569 365.290802,72.914276 
	C361.587036,72.947334 360.310974,71.753654 360.394531,68.044884 
	C360.566986,60.386570 360.570251,52.710064 360.230255,45.059387 
	C359.983398,39.505215 355.859131,35.860909 350.875092,36.050636 
	C345.848267,36.241993 342.130707,40.126968 342.029480,45.616497 
	C341.906647,52.279659 341.995758,58.946732 341.993622,65.612114 
	C341.992889,67.868668 341.993500,70.125214 341.993500,72.839096 
	C332.413757,72.839096 323.612640,72.839104 314.811554,72.839088 
	C264.487854,72.839005 214.163940,72.776619 163.840759,72.941879 
	C159.164719,72.957237 157.817276,71.555832 158.040039,67.028328 
	C158.383545,60.046776 158.203613,53.034294 158.095169,46.037270 
	C158.003464,40.120136 154.365204,36.158150 149.188965,36.048294 
	C143.813492,35.934219 139.980789,40.025150 139.919601,46.138371 
	C139.844559,53.636215 139.762314,61.138721 139.953354,68.632324 
	C140.038284,71.963913 138.787643,72.945709 135.593445,72.890549 
	C127.264771,72.746742 118.882935,72.335861 110.615768,73.075813 
	C104.428123,73.629646 97.862053,74.747536 92.375992,77.458725 
	C75.188774,85.952591 66.283760,100.307213 66.239777,119.568069 
	C66.110764,176.056976 66.188927,232.546356 66.188606,289.035553 
	C66.188477,311.697876 66.035065,334.361664 66.242622,357.022125 
	C66.464439,381.239136 82.932686,400.058411 107.161995,403.427582 
z"/>
<path fill="#FCFDFF" opacity="1.000000" stroke="none" 
	d="
M1.845086,411.020050 
	C4.519222,433.960358 19.281029,449.412506 41.517536,452.347717 
	C41.944706,452.594788 42.000000,453.000000 42.000000,453.000000 
	C28.405777,453.000000 14.811556,453.000000 1.000000,453.000000 
	C1.000000,439.313202 1.000000,425.625275 1.211150,411.478821 
	C1.422299,411.020294 1.845086,411.020050 1.845086,411.020050 
z"/>
<path fill="#FCFDFF" opacity="1.000000" stroke="none" 
	d="
M460.108154,452.191650 
	C482.049622,449.895264 497.655914,434.137695 500.327148,411.450317 
	C500.595001,411.047485 501.000000,411.000000 501.000000,411.000000 
	C501.000000,424.925781 501.000000,438.851593 501.000000,453.000000 
	C487.646606,453.000000 474.291962,453.000000 460.497131,452.798096 
	C460.056976,452.596222 460.108154,452.191650 460.108154,452.191650 
z"/>
<path fill="#FCFDFF" opacity="1.000000" stroke="none" 
	d="
M39.531342,1.000000 
	C38.985619,1.418673 38.005516,1.977358 36.951790,2.235301 
	C16.768734,7.175930 4.305609,21.380499 1.690524,42.571888 
	C1.418211,42.977852 1.000000,43.000000 1.000000,43.000000 
	C1.000000,29.076056 1.000000,15.152109 1.000000,1.000000 
	C13.686650,1.000000 26.374666,1.000000 39.531342,1.000000 
z"/>
<path fill="#FDFEFF" opacity="1.000000" stroke="none" 
	d="
M500.196930,42.954849 
	C497.987640,20.703289 482.945984,4.512146 461.565613,1.623628 
	C461.120087,1.396336 461.000000,1.000000 461.000000,1.000000 
	C474.261780,1.000000 487.523590,1.000000 501.000000,1.000000 
	C501.000000,14.686813 501.000000,28.374748 500.800079,42.504742 
	C500.600159,42.946800 500.196930,42.954849 500.196930,42.954849 
z"/>
<path fill="#9FC3FF" opacity="1.000000" stroke="none" 
	d="
M460.531342,1.000000 
	C461.000000,1.000000 461.120087,1.396336 461.165466,1.598163 
	C458.550629,1.866144 455.890411,1.989989 453.230225,1.990179 
	C318.003967,1.999848 182.777695,2.000841 47.551445,1.981026 
	C45.574322,1.980736 43.597240,1.706969 41.310070,1.280417 
	C180.687561,1.000000 320.375122,1.000000 460.531342,1.000000 
z"/>
<path fill="#C0D8FF" opacity="1.000000" stroke="none" 
	d="
M459.639648,452.117828 
	C460.108154,452.191650 460.056976,452.596222 460.028503,452.798096 
	C320.975922,453.000000 181.951843,453.000000 42.463882,453.000000 
	C42.000000,453.000000 41.944706,452.594788 41.918617,452.392273 
	C42.721336,452.126160 43.550144,452.006744 44.378941,452.006805 
	C182.642990,452.013611 320.907043,452.028961 459.639648,452.117828 
z"/>
<path fill="#E2EDFF" opacity="1.000000" stroke="none" 
	d="
M500.126526,43.418938 
	C500.196930,42.954849 500.600159,42.946800 500.800079,42.973400 
	C501.000000,165.356659 501.000000,287.713318 501.000000,410.534973 
	C501.000000,411.000000 500.595001,411.047485 500.391205,411.044891 
	C500.125153,409.547211 500.008484,408.052124 500.008362,406.557037 
	C500.000122,286.497925 500.000885,166.438782 500.003479,46.379665 
	C500.003510,45.547455 500.037842,44.715240 500.126526,43.418938 
z"/>
<path fill="#EDF4FF" opacity="1.000000" stroke="none" 
	d="
M1.000000,43.466042 
	C1.000000,43.000000 1.418211,42.977852 1.627572,42.978409 
	C1.890059,43.808620 1.989754,44.638275 1.989721,45.467930 
	C1.984829,167.008942 1.972717,288.549957 1.903003,410.555511 
	C1.845086,411.020050 1.422299,411.020294 1.211150,411.010132 
	C1.000000,288.644043 1.000000,166.288055 1.000000,43.466042 
z"/>
<path fill="#FCFDFF" opacity="1.000000" stroke="none" 
	d="
M106.726479,403.345001 
	C82.932686,400.058411 66.464439,381.239136 66.242622,357.022125 
	C66.035065,334.361664 66.188477,311.697876 66.188606,289.035553 
	C66.188927,232.546356 66.110764,176.056976 66.239777,119.568069 
	C66.283760,100.307213 75.188774,85.952591 92.375992,77.458725 
	C97.862053,74.747536 104.428123,73.629646 110.615768,73.075813 
	C118.882935,72.335861 127.264771,72.746742 135.593445,72.890549 
	C138.787643,72.945709 140.038284,71.963913 139.953354,68.632324 
	C139.762314,61.138721 139.844559,53.636215 139.919601,46.138371 
	C139.980789,40.025150 143.813492,35.934219 149.188965,36.048294 
	C154.365204,36.158150 158.003464,40.120136 158.095169,46.037270 
	C158.203613,53.034294 158.383545,60.046776 158.040039,67.028328 
	C157.817276,71.555832 159.164719,72.957237 163.840759,72.941879 
	C214.163940,72.776619 264.487854,72.839005 314.811554,72.839088 
	C323.612640,72.839104 332.413757,72.839096 341.993500,72.839096 
	C341.993500,70.125214 341.992889,67.868668 341.993622,65.612114 
	C341.995758,58.946732 341.906647,52.279659 342.029480,45.616497 
	C342.130707,40.126968 345.848267,36.241993 350.875092,36.050636 
	C355.859131,35.860909 359.983398,39.505215 360.230255,45.059387 
	C360.570251,52.710064 360.566986,60.386570 360.394531,68.044884 
	C360.310974,71.753654 361.587036,72.947334 365.290802,72.914276 
	C375.114288,72.826569 385.067627,72.164207 394.741394,73.447952 
	C417.655090,76.488686 433.617828,95.626564 433.921631,119.364738 
	C434.107117,133.859619 433.963470,148.358749 433.963684,162.855972 
	C433.964539,226.677109 433.973846,290.498230 433.959534,354.319366 
	C433.952789,384.305969 414.493469,403.845306 384.584747,403.851929 
	C294.935211,403.871765 205.285706,403.863159 115.636185,403.841125 
	C112.811424,403.840424 109.986725,403.571472 106.726479,403.345001 
M98.219475,381.448883 
	C103.318054,382.679718 108.414078,384.971497 113.515587,384.983734 
	C203.999222,385.201233 294.484802,384.896118 384.966492,385.367706 
	C401.253143,385.452576 415.738190,374.020294 415.595337,354.942871 
	C415.136108,293.623718 415.376221,232.298843 415.522766,170.976593 
	C415.533966,166.288422 414.440552,164.744720 409.489410,164.751312 
	C303.174866,164.892715 196.860123,164.857300 90.545395,164.870728 
	C88.780716,164.870956 87.016060,165.051437 85.154495,165.153091 
	C85.011307,166.814865 84.827141,167.955963 84.826942,169.097107 
	C84.816017,231.919418 84.817108,294.741730 84.826828,357.564056 
	C84.828392,367.693573 89.123619,375.509796 98.219475,381.448883 
M325.500000,146.143341 
	C353.823120,146.142822 382.146210,146.139145 410.469330,146.147171 
	C413.018433,146.147888 415.548798,146.480713 415.452637,142.545807 
	C415.237061,133.722443 415.660034,124.865082 415.058533,116.073875 
	C414.181305,103.253006 404.545044,93.078888 391.844513,91.831841 
	C383.092438,90.972473 374.214050,91.475006 365.403900,91.095657 
	C361.569031,90.930519 360.055908,92.031487 360.199921,96.105194 
	C360.470428,103.758209 360.278625,111.429451 360.197021,119.092247 
	C360.155182,123.024300 358.127014,126.279404 354.491180,126.975807 
	C351.596039,127.530350 347.609711,127.060852 345.435852,125.354279 
	C343.387177,123.745972 342.288849,119.966087 342.145355,117.073410 
	C341.727478,108.649994 341.997070,100.192474 341.997070,91.494614 
	C280.492554,91.494614 219.622849,91.494614 158.127670,91.494614 
	C158.127670,99.599686 158.135193,107.382980 158.125641,115.166252 
	C158.115387,123.523888 154.888977,127.990898 148.915207,127.948799 
	C142.987000,127.907028 139.907318,123.492828 139.900620,115.007545 
	C139.894501,107.238853 139.899323,99.470161 139.899323,91.332970 
	C129.720047,91.332970 120.220108,90.730125 110.825157,91.466606 
	C94.522758,92.744560 84.838356,103.964119 84.810471,120.453568 
	C84.801453,125.784966 84.809029,131.116394 84.809013,136.447800 
	C84.809006,139.535995 84.809006,142.624176 84.809006,146.143494 
	C165.281525,146.143494 244.890762,146.143494 325.500000,146.143341 
z"/>
<path fill="#67A0FF" opacity="1.000000" stroke="none" 
	d="
M97.911697,381.242371 
	C89.123619,375.509796 84.828392,367.693573 84.826828,357.564056 
	C84.817108,294.741730 84.816017,231.919418 84.826942,169.097107 
	C84.827141,167.955963 85.011307,166.814865 85.154495,165.153091 
	C87.016060,165.051437 88.780716,164.870956 90.545395,164.870728 
	C196.860123,164.857300 303.174866,164.892715 409.489410,164.751312 
	C414.440552,164.744720 415.533966,166.288422 415.522766,170.976593 
	C415.376221,232.298843 415.136108,293.623718 415.595337,354.942871 
	C415.738190,374.020294 401.253143,385.452576 384.966492,385.367706 
	C294.484802,384.896118 203.999222,385.201233 113.515587,384.983734 
	C108.414078,384.971497 103.318054,382.679718 97.911697,381.242371 
M153.699005,218.512665 
	C157.761078,215.919754 158.963623,212.153580 157.599213,207.735031 
	C156.250031,203.365814 152.722504,201.527283 148.397858,201.488617 
	C141.941650,201.430862 135.455093,201.334824 129.034653,201.880692 
	C124.533493,202.263382 121.407646,206.184555 121.450539,210.364182 
	C121.498573,215.046021 123.854591,219.144302 128.346146,219.437256 
	C136.518936,219.970276 144.779053,219.164139 153.699005,218.512665 
M365.253632,201.374512 
	C360.096924,201.497955 354.902893,201.281342 349.794281,201.842575 
	C344.898193,202.380478 341.948334,206.189194 342.022247,210.713669 
	C342.099335,215.432571 345.456085,219.576340 350.279114,219.822678 
	C357.089813,220.170517 363.949646,220.177917 370.755768,219.776108 
	C375.325806,219.506287 378.660187,215.331985 378.782379,210.937698 
	C378.904388,206.552078 375.755646,202.702560 371.139709,201.796906 
	C369.519958,201.479080 367.832458,201.506485 365.253632,201.374512 
M206.002808,201.384338 
	C198.370834,202.200012 194.796722,205.304352 195.008728,210.933380 
	C195.230804,216.829727 199.359390,219.977341 206.952423,220.007645 
	C211.618652,220.026276 216.285797,220.063446 220.951157,219.996414 
	C227.494080,219.902435 231.759064,216.189758 231.746719,210.709671 
	C231.734970,205.496216 227.640228,201.692291 221.399887,201.439606 
	C216.574600,201.244232 211.735672,201.385696 206.002808,201.384338 
M285.539825,201.377335 
	C282.551361,201.471924 279.526245,201.305481 276.582642,201.719238 
	C271.534363,202.428802 268.362762,206.251099 268.539398,210.896774 
	C268.728638,215.873322 272.247559,219.707367 277.430786,219.910736 
	C283.742737,220.158371 290.081329,220.173950 296.390900,219.894440 
	C301.390808,219.672943 304.855957,215.929657 305.089783,211.260895 
	C305.345306,206.159134 302.328583,202.390442 296.961182,201.721115 
	C293.514923,201.291351 289.992584,201.471375 285.539825,201.377335 
M149.051132,330.114136 
	C155.322510,328.992950 158.379333,325.654633 158.040863,320.296600 
	C157.712067,315.091797 153.953995,311.963287 147.695984,311.869202 
	C142.212219,311.786743 136.723572,311.755219 131.241745,311.890076 
	C125.320946,312.035736 121.377769,315.795563 121.477005,320.929901 
	C121.581139,326.317322 125.320000,329.967468 131.186920,330.109619 
	C136.834930,330.246429 142.488785,330.142914 149.051132,330.114136 
M273.752441,312.750183 
	C269.475647,314.951935 267.887329,318.462982 268.889069,323.099426 
	C269.762360,327.141235 272.466858,329.733398 276.457306,329.928131 
	C283.421326,330.267975 290.430206,330.282562 297.390442,329.895813 
	C302.016174,329.638763 305.081573,325.596893 305.087433,320.970764 
	C305.093323,316.320892 302.023163,312.260712 297.386078,312.105255 
	C289.769806,311.849976 282.131042,312.265137 273.752441,312.750183 
M230.722580,325.046997 
	C233.076508,316.984406 229.478394,311.998169 221.110123,311.865112 
	C215.781464,311.780396 210.448685,311.770203 205.120712,311.876221 
	C199.062134,311.996735 195.129883,315.480865 195.013840,320.619598 
	C194.889236,326.137695 198.793198,329.979828 204.919617,330.117737 
	C210.413452,330.241364 215.978180,330.654083 221.383392,329.952057 
	C224.500763,329.547180 227.363968,327.185333 230.722580,325.046997 
M376.964844,326.379761 
	C380.832123,318.121490 377.188385,312.016968 368.212097,311.869080 
	C362.551300,311.775787 356.882355,311.729706 351.226196,311.925720 
	C345.708588,312.116943 341.914856,316.050171 342.032227,321.047058 
	C342.152618,326.172028 345.858063,329.900604 351.398712,330.084625 
	C356.889008,330.267029 362.420990,330.495178 367.872955,330.010040 
	C370.808594,329.748840 373.614868,328.034241 376.964844,326.379761 
M199.148148,258.282806 
	C195.806320,260.838318 194.121933,264.046539 195.403854,268.296387 
	C196.588913,272.224976 199.414200,274.641479 203.376541,274.829102 
	C210.022629,275.143890 216.707275,275.158203 223.351532,274.821655 
	C227.953018,274.588562 231.664764,270.570557 231.663391,266.270264 
	C231.661972,261.839508 229.521698,257.702759 225.141602,257.437195 
	C216.756561,256.928833 208.295273,257.678101 199.148148,258.282806 
M342.055664,266.371094 
	C343.618073,272.281433 346.156281,274.775024 351.446198,274.937469 
	C357.439270,275.121521 363.448395,275.142609 369.439453,274.926910 
	C374.868958,274.731476 378.846680,270.600128 378.760925,265.738800 
	C378.673889,260.804352 374.747864,257.039948 369.188873,256.897644 
	C363.360474,256.748413 357.522491,256.751160 351.693848,256.895325 
	C345.905640,257.038483 343.334503,259.475311 342.055664,266.371094 
M137.542587,256.843903 
	C135.050934,256.867737 132.547577,256.746307 130.070099,256.946045 
	C125.089699,257.347565 121.504486,261.051392 121.475670,265.604492 
	C121.446304,270.244324 124.795715,274.506897 129.609451,274.785614 
	C136.395569,275.178528 143.239029,275.190704 150.023926,274.789673 
	C154.888306,274.502136 158.174026,270.243042 158.056549,265.585144 
	C157.938126,260.889648 154.498322,257.280945 149.485291,256.959564 
	C145.844101,256.726105 142.178772,256.868774 137.542587,256.843903 
M299.264160,274.245117 
	C304.331909,271.145905 306.210114,267.649750 304.762695,263.294403 
	C303.182465,258.539581 299.556305,256.735992 294.692566,256.828156 
	C289.038422,256.935272 283.376404,256.730713 277.726318,256.918457 
	C272.331573,257.097717 268.696136,260.687103 268.586578,265.524689 
	C268.475647,270.422302 271.953369,274.673218 277.085907,274.847229 
	C284.211395,275.088867 291.358704,274.686676 299.264160,274.245117 
z"/>
<path fill="#67A1FF" opacity="1.000000" stroke="none" 
	d="
M325.000000,146.143417 
	C244.890762,146.143494 165.281525,146.143494 84.809006,146.143494 
	C84.809006,142.624176 84.809006,139.535995 84.809013,136.447800 
	C84.809029,131.116394 84.801453,125.784966 84.810471,120.453568 
	C84.838356,103.964119 94.522758,92.744560 110.825157,91.466606 
	C120.220108,90.730125 129.720047,91.332970 139.899323,91.332970 
	C139.899323,99.470161 139.894501,107.238853 139.900620,115.007545 
	C139.907318,123.492828 142.987000,127.907028 148.915207,127.948799 
	C154.888977,127.990898 158.115387,123.523888 158.125641,115.166252 
	C158.135193,107.382980 158.127670,99.599686 158.127670,91.494614 
	C219.622849,91.494614 280.492554,91.494614 341.997070,91.494614 
	C341.997070,100.192474 341.727478,108.649994 342.145355,117.073410 
	C342.288849,119.966087 343.387177,123.745972 345.435852,125.354279 
	C347.609711,127.060852 351.596039,127.530350 354.491180,126.975807 
	C358.127014,126.279404 360.155182,123.024300 360.197021,119.092247 
	C360.278625,111.429451 360.470428,103.758209 360.199921,96.105194 
	C360.055908,92.031487 361.569031,90.930519 365.403900,91.095657 
	C374.214050,91.475006 383.092438,90.972473 391.844513,91.831841 
	C404.545044,93.078888 414.181305,103.253006 415.058533,116.073875 
	C415.660034,124.865082 415.237061,133.722443 415.452637,142.545807 
	C415.548798,146.480713 413.018433,146.147888 410.469330,146.147171 
	C382.146210,146.139145 353.823120,146.142822 325.000000,146.143417 
z"/>
<path fill="#FBFDFF" opacity="1.000000" stroke="none" 
	d="
M153.350861,218.714737 
	C144.779053,219.164139 136.518936,219.970276 128.346146,219.437256 
	C123.854591,219.144302 121.498573,215.046021 121.450539,210.364182 
	C121.407646,206.184555 124.533493,202.263382 129.034653,201.880692 
	C135.455093,201.334824 141.941650,201.430862 148.397858,201.488617 
	C152.722504,201.527283 156.250031,203.365814 157.599213,207.735031 
	C158.963623,212.153580 157.761078,215.919754 153.350861,218.714737 
z"/>
<path fill="#FBFCFF" opacity="1.000000" stroke="none" 
	d="
M365.714783,201.375397 
	C367.832458,201.506485 369.519958,201.479080 371.139709,201.796906 
	C375.755646,202.702560 378.904388,206.552078 378.782379,210.937698 
	C378.660187,215.331985 375.325806,219.506287 370.755768,219.776108 
	C363.949646,220.177917 357.089813,220.170517 350.279114,219.822678 
	C345.456085,219.576340 342.099335,215.432571 342.022247,210.713669 
	C341.948334,206.189194 344.898193,202.380478 349.794281,201.842575 
	C354.902893,201.281342 360.096924,201.497955 365.714783,201.375397 
z"/>
<path fill="#FBFCFF" opacity="1.000000" stroke="none" 
	d="
M206.452820,201.380859 
	C211.735672,201.385696 216.574600,201.244232 221.399887,201.439606 
	C227.640228,201.692291 231.734970,205.496216 231.746719,210.709671 
	C231.759064,216.189758 227.494080,219.902435 220.951157,219.996414 
	C216.285797,220.063446 211.618652,220.026276 206.952423,220.007645 
	C199.359390,219.977341 195.230804,216.829727 195.008728,210.933380 
	C194.796722,205.304352 198.370834,202.200012 206.452820,201.380859 
z"/>
<path fill="#FBFDFF" opacity="1.000000" stroke="none" 
	d="
M286.022095,201.377701 
	C289.992584,201.471375 293.514923,201.291351 296.961182,201.721115 
	C302.328583,202.390442 305.345306,206.159134 305.089783,211.260895 
	C304.855957,215.929657 301.390808,219.672943 296.390900,219.894440 
	C290.081329,220.173950 283.742737,220.158371 277.430786,219.910736 
	C272.247559,219.707367 268.728638,215.873322 268.539398,210.896774 
	C268.362762,206.251099 271.534363,202.428802 276.582642,201.719238 
	C279.526245,201.305481 282.551361,201.471924 286.022095,201.377701 
z"/>
<path fill="#FDFEFF" opacity="1.000000" stroke="none" 
	d="
M148.595596,330.129578 
	C142.488785,330.142914 136.834930,330.246429 131.186920,330.109619 
	C125.320000,329.967468 121.581139,326.317322 121.477005,320.929901 
	C121.377769,315.795563 125.320946,312.035736 131.241745,311.890076 
	C136.723572,311.755219 142.212219,311.786743 147.695984,311.869202 
	C153.953995,311.963287 157.712067,315.091797 158.040863,320.296600 
	C158.379333,325.654633 155.322510,328.992950 148.595596,330.129578 
z"/>
<path fill="#FEFEFF" opacity="1.000000" stroke="none" 
	d="
M274.127106,312.573914 
	C282.131042,312.265137 289.769806,311.849976 297.386078,312.105255 
	C302.023163,312.260712 305.093323,316.320892 305.087433,320.970764 
	C305.081573,325.596893 302.016174,329.638763 297.390442,329.895813 
	C290.430206,330.282562 283.421326,330.267975 276.457306,329.928131 
	C272.466858,329.733398 269.762360,327.141235 268.889069,323.099426 
	C267.887329,318.462982 269.475647,314.951935 274.127106,312.573914 
z"/>
<path fill="#FDFEFF" opacity="1.000000" stroke="none" 
	d="
M230.532074,325.375641 
	C227.363968,327.185333 224.500763,329.547180 221.383392,329.952057 
	C215.978180,330.654083 210.413452,330.241364 204.919617,330.117737 
	C198.793198,329.979828 194.889236,326.137695 195.013840,320.619598 
	C195.129883,315.480865 199.062134,311.996735 205.120712,311.876221 
	C210.448685,311.770203 215.781464,311.780396 221.110123,311.865112 
	C229.478394,311.998169 233.076508,316.984406 230.532074,325.375641 
z"/>
<path fill="#FDFEFF" opacity="1.000000" stroke="none" 
	d="
M376.722168,326.677582 
	C373.614868,328.034241 370.808594,329.748840 367.872955,330.010040 
	C362.420990,330.495178 356.889008,330.267029 351.398712,330.084625 
	C345.858063,329.900604 342.152618,326.172028 342.032227,321.047058 
	C341.914856,316.050171 345.708588,312.116943 351.226196,311.925720 
	C356.882355,311.729706 362.551300,311.775787 368.212097,311.869080 
	C377.188385,312.016968 380.832123,318.121490 376.722168,326.677582 
z"/>
<path fill="#FDFEFF" opacity="1.000000" stroke="none" 
	d="
M199.506882,258.094116 
	C208.295273,257.678101 216.756561,256.928833 225.141602,257.437195 
	C229.521698,257.702759 231.661972,261.839508 231.663391,266.270264 
	C231.664764,270.570557 227.953018,274.588562 223.351532,274.821655 
	C216.707275,275.158203 210.022629,275.143890 203.376541,274.829102 
	C199.414200,274.641479 196.588913,272.224976 195.403854,268.296387 
	C194.121933,264.046539 195.806320,260.838318 199.506882,258.094116 
z"/>
<path fill="#FDFEFF" opacity="1.000000" stroke="none" 
	d="
M342.042114,265.979156 
	C343.334503,259.475311 345.905640,257.038483 351.693848,256.895325 
	C357.522491,256.751160 363.360474,256.748413 369.188873,256.897644 
	C374.747864,257.039948 378.673889,260.804352 378.760925,265.738800 
	C378.846680,270.600128 374.868958,274.731476 369.439453,274.926910 
	C363.448395,275.142609 357.439270,275.121521 351.446198,274.937469 
	C346.156281,274.775024 343.618073,272.281433 342.042114,265.979156 
z"/>
<path fill="#FDFEFF" opacity="1.000000" stroke="none" 
	d="
M138.033401,256.843811 
	C142.178772,256.868774 145.844101,256.726105 149.485291,256.959564 
	C154.498322,257.280945 157.938126,260.889648 158.056549,265.585144 
	C158.174026,270.243042 154.888306,274.502136 150.023926,274.789673 
	C143.239029,275.190704 136.395569,275.178528 129.609451,274.785614 
	C124.795715,274.506897 121.446304,270.244324 121.475670,265.604492 
	C121.504486,261.051392 125.089699,257.347565 130.070099,256.946045 
	C132.547577,256.746307 135.050934,256.867737 138.033401,256.843811 
z"/>
<path fill="#FDFEFF" opacity="1.000000" stroke="none" 
	d="
M298.880432,274.402618 
	C291.358704,274.686676 284.211395,275.088867 277.085907,274.847229 
	C271.953369,274.673218 268.475647,270.422302 268.586578,265.524689 
	C268.696136,260.687103 272.331573,257.097717 277.726318,256.918457 
	C283.376404,256.730713 289.038422,256.935272 294.692566,256.828156 
	C299.556305,256.735992 303.182465,258.539581 304.762695,263.294403 
	C306.210114,267.649750 304.331909,271.145905 298.880432,274.402618 
z"/>
</svg>