<svg version="1.1" id="Layer_1" xmlns="http://www.w3.org/2000/svg" xmlns:xlink="http://www.w3.org/1999/xlink" x="0px" y="0px"
	 width="100%" viewBox="0 0 1024 1024" enable-background="new 0 0 1024 1024" xml:space="preserve">
<path fill="#000000" opacity="1.000000" stroke="none" 
	d="
M1.000000,781.000000 
	C1.000000,577.977966 1.000000,374.955963 1.098277,171.114365 
	C1.593442,169.379608 2.179642,168.500046 2.359411,167.544052 
	C6.398730,146.063629 17.362436,128.208298 31.532450,112.091507 
	C53.125706,87.531647 79.907593,69.981194 108.851006,55.447678 
	C149.172470,35.200832 192.002441,22.513487 236.075897,13.711528 
	C265.154785,7.904150 294.518829,4.305018 324.124298,2.391432 
	C330.737274,1.963995 337.443726,2.351766 344.000000,1.000000 
	C366.022003,1.000000 388.044037,1.000000 410.924103,1.117817 
	C418.719604,2.147919 425.725861,1.942185 432.694702,2.401471 
	C462.304230,4.352911 491.687653,7.879226 520.775452,13.701376 
	C570.655640,23.685303 618.930237,38.386360 663.714294,63.130146 
	C688.242493,76.682304 710.743958,92.852188 729.181519,114.211411 
	C744.748413,132.245193 755.497070,152.538376 758.711365,176.479904 
	C759.145508,179.713593 757.990234,183.722900 760.463928,186.079742 
	C763.220825,188.706482 763.171753,191.530884 763.171387,194.681992 
	C763.161072,278.846863 763.157349,363.011749 763.156494,447.176636 
	C763.156372,454.775970 763.389526,455.062531 771.036499,455.074371 
	C797.869263,455.115967 824.702026,455.107483 851.534790,455.120514 
	C861.927490,455.125580 861.779358,455.126343 861.941101,444.717316 
	C862.140137,431.901459 860.939514,419.038513 862.674438,406.278412 
	C863.772888,398.199188 870.983093,392.810394 879.092957,393.373077 
	C888.091675,393.997406 894.105225,400.925751 894.229309,411.252197 
	C894.379517,423.750214 894.434631,436.254272 894.200256,448.749481 
	C894.110046,453.557404 895.882874,455.263489 900.608459,455.190735 
	C913.105286,454.998260 925.608704,454.981293 938.106262,455.143402 
	C960.764343,455.437286 980.528381,462.886322 996.347839,479.522919 
	C1011.478271,495.434937 1018.111511,514.718445 1018.155884,536.396484 
	C1018.245239,580.062073 1018.187500,623.728027 1018.187683,667.393799 
	C1018.188049,756.225342 1018.171143,845.056885 1018.197205,933.888428 
	C1018.203369,954.817993 1011.335205,973.161987 997.192017,988.511902 
	C980.483337,1006.646057 959.181458,1014.109009 934.897461,1014.104980 
	C789.567078,1014.080627 644.236694,1014.079468 498.906281,1014.030701 
	C489.416443,1014.027527 479.929504,1014.330139 470.434937,1013.462830 
	C440.993011,1010.773438 419.620880,996.202393 405.886719,970.180359 
	C403.106873,964.913452 401.474731,959.175842 399.292114,952.911377 
	C398.409454,956.812378 395.825073,956.300049 393.530609,956.343567 
	C361.858307,956.944275 330.259308,955.625854 298.775757,952.175354 
	C261.672485,948.108948 224.990570,941.738342 189.083740,931.296021 
	C145.308380,918.565308 103.391182,901.722839 66.233788,874.750916 
	C33.689915,851.127930 7.724985,822.697815 1.000000,781.000000 
M468.500183,611.355957 
	C458.001038,611.354187 447.501892,611.345093 437.002747,611.353333 
	C430.485504,611.358459 430.199524,611.612061 430.195435,618.083435 
	C430.176880,647.248413 430.182526,676.413391 430.181580,705.578369 
	C430.179108,780.907349 430.184662,856.236389 430.162964,931.565369 
	C430.161224,937.577942 430.292725,943.546936 432.135651,949.354431 
	C438.548920,969.564148 456.015778,981.625549 479.288116,981.628784 
	C631.612671,981.650146 783.937195,981.630249 936.261780,981.628601 
	C940.944641,981.628540 945.600891,981.206726 950.130188,980.087769 
	C971.832947,974.726196 985.659485,957.144470 985.669128,934.648499 
	C985.714233,829.154602 985.688843,723.660645 985.686707,618.166748 
	C985.686707,617.166992 985.665527,616.167114 985.648621,615.167419 
	C985.607971,612.755493 984.411072,611.449463 981.970215,611.395325 
	C980.137695,611.354736 978.304138,611.355408 976.471008,611.355347 
	C807.480713,611.354492 638.490479,611.355347 468.500183,611.355957 
M545.878235,307.182709 
	C573.824768,299.995026 601.316101,291.473419 627.412354,278.960510 
	C650.378357,267.948578 672.181763,255.122467 689.625732,236.162476 
	C713.763672,209.926620 716.141052,182.465042 697.009827,155.529663 
	C687.520020,142.168823 675.347778,131.577377 662.000549,122.334175 
	C628.252930,98.963181 590.322510,84.988136 551.082642,74.475258 
	C503.486298,61.723564 454.804840,55.451729 405.643005,53.607430 
	C364.166260,52.051437 322.722748,53.813549 281.576996,59.574917 
	C252.401108,63.660217 223.446365,69.134949 195.151138,77.541451 
	C164.407410,86.675423 134.552841,98.048988 107.108673,114.903465 
	C88.982979,126.035118 72.204376,138.817184 60.239979,156.933105 
	C47.780102,175.799240 46.785069,195.045273 57.759838,214.910049 
	C65.746887,229.366959 77.319397,240.580017 90.161316,250.524673 
	C118.600464,272.547668 151.083206,286.675629 184.961090,297.756866 
	C223.056366,310.217590 262.156250,317.919983 302.056671,321.979126 
	C327.595551,324.577240 353.184357,326.192841 378.798431,326.242432 
	C402.414032,326.288177 426.044647,325.052490 449.604309,322.847626 
	C481.786743,319.835785 513.666260,315.077789 545.878235,307.182709 
M412.979065,486.543976 
	C428.190155,467.297913 447.946411,456.571503 472.524994,455.463257 
	C484.498871,454.923340 496.509735,455.156616 508.504089,455.129883 
	C523.343201,455.096802 521.459961,456.038727 521.555176,441.863678 
	C521.626770,431.200317 521.521851,420.535461 521.639709,409.872833 
	C521.743042,400.523987 528.081726,393.716278 536.853699,393.273376 
	C545.376221,392.843109 552.373108,398.802124 553.396057,407.946320 
	C554.862793,421.058075 553.796753,434.240082 553.961731,447.390015 
	C554.053101,454.674225 554.360901,455.110413 561.539307,455.113831 
	C591.697754,455.128235 621.856323,455.080109 652.014526,455.159149 
	C655.851746,455.169189 659.126038,454.212494 662.278503,452.017609 
	C671.735474,445.433350 680.753113,438.326599 688.874756,430.143036 
	C702.745728,416.166443 713.228394,400.274628 713.494629,379.856384 
	C713.898621,348.870087 713.615906,317.874695 713.594055,286.883179 
	C713.592773,285.105927 713.922058,283.173157 711.957764,281.420013 
	C707.226440,283.643433 703.618591,287.673981 699.327881,290.687714 
	C668.945007,312.027893 635.669617,327.528778 600.636658,339.350647 
	C538.471619,360.328125 474.240479,369.792450 408.921570,372.148682 
	C369.124817,373.584290 329.348328,372.098633 289.769226,367.196442 
	C255.219131,362.917114 221.071884,356.680176 187.551331,347.041290 
	C139.786423,333.306458 94.606010,314.315948 54.925705,283.718842 
	C53.781654,282.836639 52.657631,281.595642 50.956654,282.648499 
	C49.952435,283.977570 50.210472,285.530853 50.209381,286.997864 
	C50.185829,318.655762 50.191750,350.313629 50.182377,381.971527 
	C50.179485,391.738190 53.216579,400.608398 57.968346,409.014954 
	C65.823097,422.911163 76.914551,433.883698 89.371895,443.546021 
	C116.710533,464.750732 147.813828,478.666779 180.328140,489.616547 
	C220.694702,503.210693 262.216522,511.441986 304.570374,515.819031 
	C334.109589,518.871765 363.700867,519.874146 393.368439,519.637146 
	C397.112366,519.607300 398.989227,518.580078 399.869537,514.613159 
	C402.094574,504.586487 406.658508,495.515533 412.979065,486.543976 
M397.661102,839.500122 
	C397.660492,815.671570 397.662933,791.842957 397.657532,768.014404 
	C397.655731,760.039856 397.509705,759.841064 389.602570,759.878296 
	C355.108124,760.040649 320.704926,758.682373 286.433899,754.442200 
	C253.038040,750.310364 220.022202,744.360413 187.584106,735.287964 
	C147.925919,724.196106 109.933998,709.251282 74.900085,687.321655 
	C67.126106,682.455505 59.588902,677.258484 52.391151,671.568298 
	C51.259663,670.673706 50.069065,669.348816 48.413063,670.156555 
	C46.734711,670.975220 47.263168,672.743835 47.116684,674.179199 
	C47.049294,674.839600 47.082901,675.511047 47.083305,676.177490 
	C47.101624,706.338074 47.096268,736.498779 47.171158,766.659241 
	C47.181038,770.638672 47.086243,774.622437 47.912750,778.595825 
	C50.751263,792.242065 57.751118,803.629639 66.964020,813.752991 
	C87.822678,836.673218 114.037621,851.760071 142.054733,863.871704 
	C187.459915,883.500122 235.151505,894.614990 284.079010,900.925842 
	C319.674988,905.517090 355.418182,907.095337 391.275391,906.662292 
	C397.325806,906.589233 397.647675,906.257812 397.652405,899.988403 
	C397.667389,880.158997 397.659821,860.329590 397.661102,839.500122 
M73.584587,622.913025 
	C83.228622,632.413757 93.648903,640.933411 105.119179,648.165527 
	C144.240250,672.831909 187.304962,687.550659 232.055832,697.523682 
	C275.859222,707.285645 320.304626,712.353027 365.233307,712.867737 
	C374.211182,712.970642 383.153351,714.186829 392.176239,713.136841 
	C396.059601,712.684875 397.715851,711.418762 397.706787,707.300781 
	C397.607422,662.145813 397.603943,616.990540 397.712799,571.835693 
	C397.723572,567.373047 395.957458,566.103516 391.748810,566.143799 
	C359.574890,566.452332 327.491180,564.827820 295.488922,561.451843 
	C248.645248,556.510132 202.831482,546.882751 158.302826,531.423035 
	C120.940292,518.451294 85.669907,501.451569 54.373745,476.891357 
	C53.400494,476.127594 52.484905,474.829254 50.838268,475.741577 
	C49.851860,477.389893 50.175945,479.267395 50.174114,481.058258 
	C50.142807,511.717041 50.132072,542.375854 50.165855,573.034668 
	C50.169884,576.689819 50.189938,580.348206 50.937531,583.978821 
	C54.081524,599.247314 62.662769,611.352966 73.584587,622.913025 
M501.499969,578.740601 
	C573.490601,578.739380 645.481262,578.734619 717.471924,578.737915 
	C804.460754,578.741882 891.449585,578.754089 978.438416,578.758240 
	C985.595276,578.758606 985.673218,578.669067 985.675720,571.468506 
	C985.680115,558.970154 985.758850,546.471130 985.661255,533.973511 
	C985.455688,507.647888 966.318481,488.336029 939.950073,487.833374 
	C928.788879,487.620575 917.624451,487.520386 906.461182,487.483795 
	C892.844482,487.439148 894.324524,486.100220 894.258850,499.883392 
	C894.206421,510.881409 894.472961,521.887756 894.126038,532.875549 
	C893.822754,542.478760 887.356201,549.013977 878.686646,549.319763 
	C869.778137,549.633972 863.025452,543.926636 862.470215,533.985657 
	C861.737305,520.862183 862.097168,507.677734 861.985229,494.519501 
	C861.933167,488.398376 861.146545,487.517334 855.116272,487.482025 
	C844.951294,487.422516 834.785645,487.470001 824.620300,487.470245 
	C736.969055,487.472321 649.317871,487.473419 561.666626,487.476532 
	C554.009277,487.476807 553.887817,487.589630 553.870850,495.357056 
	C553.847168,506.188904 553.930176,517.021851 553.793579,527.852051 
	C553.749756,531.324524 553.636963,534.924316 552.715088,538.231567 
	C550.617432,545.757263 542.936157,550.362488 535.253418,549.223389 
	C527.564026,548.083191 521.801636,541.715393 521.696472,533.646667 
	C521.520569,520.150635 521.535217,506.649963 521.673096,493.153320 
	C521.714111,489.140076 520.350525,487.360504 516.194092,487.433350 
	C501.534668,487.690216 486.860718,487.030304 472.212189,487.968628 
	C448.723511,489.473267 430.529419,508.510193 430.237671,531.994446 
	C430.070007,545.490662 430.351013,558.993103 430.117798,572.487366 
	C430.034760,577.291504 431.713165,578.877869 436.508942,578.833252 
	C457.837708,578.634827 479.169342,578.742798 501.499969,578.740601 
z"/>
<path fill="#000000" opacity="1.000000" stroke="none" 
	d="
M796.427979,676.570190 
	C801.291443,682.256287 802.839783,688.278564 799.663635,694.874268 
	C796.438110,701.572510 790.793762,704.408508 783.444580,704.331543 
	C774.124878,704.233948 764.802979,704.365479 755.482971,704.285095 
	C745.606506,704.199951 738.335510,697.528564 738.234070,688.613953 
	C738.123718,678.923096 745.169128,671.885254 755.388550,671.744446 
	C764.873840,671.613708 774.362305,671.708252 783.849365,671.725098 
	C788.510254,671.733398 792.700684,673.054932 796.427979,676.570190 
z"/>
<path fill="#000000" opacity="1.000000" stroke="none" 
	d="
M867.693176,700.391113 
	C862.031494,694.684753 860.778442,688.203857 863.691101,681.314819 
	C866.703125,674.190735 872.816772,671.634338 880.276733,671.684753 
	C889.267395,671.745605 898.259521,671.633362 907.249695,671.725891 
	C917.877502,671.835266 925.328552,678.819275 925.226685,688.410828 
	C925.128723,697.633179 917.622131,704.246521 907.092041,704.299072 
	C897.934692,704.344788 888.776123,704.238525 879.619568,704.334839 
	C875.283447,704.380371 871.404724,703.301514 867.693176,700.391113 
z"/>
<path fill="#000000" opacity="1.000000" stroke="none" 
	d="
M910.348633,889.858032 
	C899.757446,889.973450 889.599365,890.205322 879.448364,890.029175 
	C868.875671,889.845825 861.972717,882.969177 862.215698,873.349731 
	C862.453735,863.930603 869.397644,857.726013 879.859741,857.674988 
	C889.017090,857.630310 898.175171,857.619690 907.332397,857.681580 
	C917.274902,857.748779 924.114014,863.421814 925.161560,872.342224 
	C926.126221,880.555969 920.413940,887.490417 910.348633,889.858032 
z"/>
<path fill="#000000" opacity="1.000000" stroke="none" 
	d="
M740.416870,865.708862 
	C744.125244,860.076599 749.140991,857.666443 755.419922,857.669495 
	C764.913757,857.674072 774.408325,857.597656 783.901245,857.691956 
	C794.001648,857.792297 801.266235,864.609253 801.283203,873.815491 
	C801.299927,882.867798 794.471069,889.648987 784.422302,889.953979 
	C774.770752,890.246887 765.097229,890.267883 755.445557,889.988342 
	C741.767273,889.592224 734.998230,878.746338 740.416870,865.708862 
z"/>
<path fill="#000000" opacity="1.000000" stroke="none" 
	d="
M869.571045,767.300171 
	C873.185303,765.281372 876.703979,764.607239 880.462830,764.646301 
	C889.460205,764.739746 898.459961,764.601257 907.457092,764.703430 
	C917.895569,764.821899 925.247681,771.677124 925.205933,781.065491 
	C925.165710,790.096008 917.830750,796.993408 907.637329,797.201172 
	C898.143127,797.394775 888.640198,797.362305 879.144531,797.210815 
	C871.440491,797.088013 865.393066,792.869568 863.189209,786.501526 
	C860.704956,779.323608 862.808044,772.737122 869.571045,767.300171 
z"/>
<path fill="#000000" opacity="1.000000" stroke="none" 
	d="
M801.224243,780.156677 
	C800.388855,790.833374 794.396667,796.899719 784.268494,797.167053 
	C774.623962,797.421692 764.963562,797.401794 755.317505,797.180725 
	C745.265747,796.950378 738.090027,789.791626 738.302246,780.662964 
	C738.520325,771.282959 745.537720,764.810608 755.796753,764.706360 
	C764.781555,764.615051 773.768188,764.650879 782.753662,764.697876 
	C793.533264,764.754272 798.907776,769.169250 801.224243,780.156677 
z"/>
<path fill="#000000" opacity="1.000000" stroke="none" 
	d="
M661.592041,671.761108 
	C672.400146,673.799561 678.180542,680.661255 677.305298,689.899963 
	C676.474976,698.664795 669.338379,704.277649 658.917236,704.305786 
	C649.777832,704.330505 640.637573,704.378418 631.499084,704.281555 
	C621.622742,704.176941 614.715393,697.634033 614.574585,688.438538 
	C614.429382,678.960449 621.231323,671.974426 631.229858,671.773315 
	C641.195923,671.572937 651.169312,671.734741 661.592041,671.761108 
z"/>
<path fill="#000000" opacity="1.000000" stroke="none" 
	d="
M546.969177,701.152405 
	C543.535522,703.517822 540.062500,704.346436 536.294739,704.325745 
	C526.816772,704.273499 517.337769,704.367554 507.860229,704.287292 
	C497.880707,704.202759 490.738831,697.405273 490.659363,688.075256 
	C490.580933,678.867859 497.751587,671.923462 507.818848,671.759888 
	C517.294678,671.605835 526.775818,671.632690 536.252686,671.743042 
	C544.287109,671.836548 549.937866,675.703064 552.571655,682.581970 
	C555.073425,689.116211 553.318787,695.199219 546.969177,701.152405 
z"/>
<path fill="#000000" opacity="1.000000" stroke="none" 
	d="
M614.713257,870.783325 
	C617.551575,861.875916 622.943298,857.751343 631.647156,857.685303 
	C641.133972,857.613281 650.622498,857.596558 660.108887,857.693726 
	C670.107910,857.796082 677.105042,864.234070 677.346924,873.356384 
	C677.594666,882.701233 670.746155,889.720459 660.576294,889.988525 
	C650.929810,890.242798 641.263550,890.254089 631.619263,889.950623 
	C620.056396,889.586853 614.210754,882.887207 614.713257,870.783325 
z"/>
<path fill="#000000" opacity="1.000000" stroke="none" 
	d="
M491.475159,776.011475 
	C494.593628,768.003296 500.447449,764.738281 508.352966,764.700134 
	C517.665283,764.655273 526.979004,764.598816 536.290344,764.705200 
	C546.254883,764.819031 553.214478,771.298340 553.401733,780.412720 
	C553.594788,789.805237 546.739685,796.929565 536.768127,797.172607 
	C526.962891,797.411621 517.138184,797.469238 507.338074,797.136169 
	C495.716309,796.741272 488.923523,787.678284 491.475159,776.011475 
z"/>
<path fill="#000000" opacity="1.000000" stroke="none" 
	d="
M622.500977,794.777222 
	C615.427551,789.427002 612.983582,782.847412 615.229736,775.895996 
	C617.436157,769.067932 623.651550,764.787048 631.824951,764.712463 
	C641.473816,764.624512 651.127380,764.546082 660.772949,764.747986 
	C670.333496,764.948059 677.156006,771.650757 677.344238,780.599182 
	C677.529053,789.390869 670.809998,796.732056 661.387878,797.097412 
	C651.089111,797.496765 640.762207,797.227600 630.448425,797.148132 
	C627.759827,797.127441 625.230774,796.188049 622.500977,794.777222 
z"/>
<path fill="#000000" opacity="1.000000" stroke="none" 
	d="
M507.309509,857.682983 
	C517.271912,857.675598 526.769836,857.599609 536.266113,857.695129 
	C546.366455,857.796753 553.218140,864.133057 553.416260,873.355103 
	C553.617798,882.738220 547.287170,889.507446 537.181641,889.883301 
	C527.365601,890.248474 517.518372,890.180481 507.697205,889.888672 
	C497.529327,889.586548 490.842102,883.084473 490.663208,873.960083 
	C490.491211,865.189819 496.779633,858.866760 507.309509,857.682983 
z"/>
</svg>