<svg version="1.1" id="Layer_1" xmlns="http://www.w3.org/2000/svg" xmlns:xlink="http://www.w3.org/1999/xlink" x="0px" y="0px"
	 width="100%" viewBox="0 0 1024 1024" enable-background="new 0 0 1024 1024" xml:space="preserve">
<path fill="#000000" opacity="1.000000" stroke="none" 
	d="
M1.000000,378.458069 
	C9.200690,366.753540 21.793964,364.252991 34.182629,361.782776 
	C93.526932,349.949951 152.921844,338.371246 212.279282,326.603943 
	C259.731964,317.196655 307.158600,307.657898 354.593262,298.159851 
	C412.446472,286.575592 470.291931,274.952484 528.148376,263.384521 
	C573.787170,254.259399 619.433350,245.171265 665.083801,236.104858 
	C719.714417,225.254974 774.366333,214.512161 828.984375,203.599594 
	C880.812073,193.244522 932.606445,182.722351 984.419556,172.294067 
	C992.092163,170.749802 999.759094,169.435608 1007.675476,169.473633 
	C1015.487610,169.511139 1021.199097,172.328796 1024.779053,179.748199 
	C1025.000000,184.356903 1025.000000,188.713806 1025.000000,193.535355 
	C1018.668396,211.175003 1012.327087,228.346420 1006.006958,245.525650 
	C986.519226,298.497437 967.034851,351.470490 947.557800,404.446259 
	C920.209595,478.830780 892.870911,553.218750 865.524841,627.604065 
	C841.511353,692.924438 817.492676,758.242920 793.478333,823.563049 
	C791.010559,830.275452 788.899292,837.143738 786.024048,843.676331 
	C780.056030,857.235718 770.234863,861.490295 755.511475,852.019531 
	C717.410828,827.511353 679.830139,802.195740 642.004822,777.258545 
	C617.112183,760.847473 592.129944,744.572205 567.261963,728.123962 
	C564.365662,726.208374 562.125488,726.064148 559.119324,727.944336 
	C505.174896,761.684082 451.132294,795.266968 397.209656,829.041382 
	C385.219482,836.551453 372.798096,843.394897 361.380707,851.813843 
	C360.184418,852.695862 358.806488,853.357605 357.454407,853.998230 
	C344.396545,860.184875 333.927063,855.555359 329.912567,841.692627 
	C327.271667,832.573120 325.961884,823.182617 324.732178,813.789246 
	C321.471222,788.880432 318.259003,763.965149 314.950623,739.062622 
	C310.597229,706.294006 306.104248,673.543762 301.798401,640.768982 
	C298.939697,619.009155 296.458954,597.198975 293.502167,575.453064 
	C292.016083,564.523560 286.022675,556.447266 276.259766,551.167847 
	C236.107559,529.455444 196.550186,506.683411 156.921783,484.039673 
	C115.124771,460.156799 73.383675,436.176086 31.602545,412.265381 
	C26.543901,409.370422 21.346851,406.717316 16.287714,403.823151 
	C10.150065,400.312073 4.489408,396.250549 1.212358,389.260406 
	C1.000000,385.638702 1.000000,382.277435 1.000000,378.458069 
M590.835754,698.629089 
	C646.586670,735.311584 702.337524,771.994080 758.992432,809.271362 
	C828.288635,620.273804 897.234741,432.230957 966.180908,244.188110 
	C965.555298,243.704391 964.929688,243.220673 964.304016,242.736954 
	C796.952515,365.943787 629.601013,489.150604 461.322357,613.039978 
	C504.983887,641.895325 547.606628,670.064148 590.835754,698.629089 
M831.543335,256.979675 
	C844.876404,250.005081 858.209534,243.030472 871.542603,236.055878 
	C871.254944,235.376389 870.967224,234.696899 870.679504,234.017410 
	C605.451355,286.819611 340.223175,339.621826 74.644608,392.493774 
	C76.032448,394.967285 77.688004,395.520325 79.101082,396.326080 
	C112.384361,415.304993 145.679840,434.262512 178.981903,453.208466 
	C220.535965,476.849091 262.132385,500.415741 303.599426,524.208008 
	C307.442169,526.412842 310.309540,526.357788 314.101624,524.378845 
	C349.690765,505.805359 385.349487,487.364777 421.022461,468.952454 
	C471.797089,442.745575 522.618469,416.629395 573.387817,390.412354 
	C659.237305,346.080109 745.061584,301.699280 831.543335,256.979675 
M530.608398,515.082092 
	C618.691895,450.152588 706.775391,385.223053 794.858887,320.293549 
	C792.893433,319.921844 791.547668,320.475830 790.259460,321.141205 
	C731.666870,351.407623 673.087830,381.700165 614.489014,411.954376 
	C553.521301,443.431671 492.535950,474.874817 431.556702,506.329742 
	C398.996582,523.125244 366.458954,539.964783 333.835632,556.636597 
	C330.069580,558.561157 328.959503,560.703979 329.764404,564.915588 
	C331.289642,572.896240 332.165985,581.002747 333.256683,589.064392 
	C336.420532,612.449890 339.580566,635.835938 342.698029,659.227661 
	C346.274902,686.066406 349.714417,712.924011 353.435944,739.742554 
	C354.122070,744.686951 353.829468,749.915833 356.557098,755.417786 
	C357.535706,753.214600 358.285309,751.770325 358.835175,750.253723 
	C375.798492,703.465698 392.757324,656.676025 409.667572,609.868774 
	C411.532654,604.706238 414.306641,600.397766 418.927307,597.222473 
	C424.415985,593.450684 429.705261,589.388123 435.070435,585.437256 
	C466.724121,562.127869 498.374725,538.814270 530.608398,515.082092 
M414.405182,773.874023 
	C452.018707,750.335449 489.632263,726.796875 528.137756,702.700073 
	C497.777740,682.727783 468.385193,663.391907 437.979675,643.389648 
	C420.086639,692.870728 402.555573,741.350891 385.024475,789.831055 
	C385.458252,790.145020 385.891998,790.458984 386.325775,790.772949 
	C395.996918,786.169800 404.505768,779.535706 414.405182,773.874023 
z"/>
</svg>