<svg version="1.1" id="Layer_1" xmlns="http://www.w3.org/2000/svg" xmlns:xlink="http://www.w3.org/1999/xlink" x="0px" y="0px"
	 width="100%" viewBox="0 0 1024 1024" enable-background="new 0 0 1024 1024" xml:space="preserve">
<path fill="#000000" opacity="1.000000" stroke="none" 
	d="
M1025.000000,470.531342 
	C1023.710144,480.871704 1023.177551,490.819061 1021.548523,500.666809 
	C1013.900269,546.900818 995.620117,588.307434 965.373352,624.187927 
	C927.850342,668.699829 879.645813,695.212830 823.168640,707.333740 
	C798.999817,712.520752 774.519043,714.581360 749.755920,714.430786 
	C698.097107,714.116577 646.435120,714.328430 594.774414,714.330078 
	C587.084778,714.330322 586.987854,714.665527 588.065430,722.318726 
	C592.261047,752.117249 596.252869,781.944519 600.458435,811.741577 
	C603.475220,833.115601 606.783630,854.448425 609.830017,875.818420 
	C613.092957,898.706787 616.156372,921.623596 619.395569,944.515442 
	C621.093872,956.517151 622.940308,968.498474 624.820557,980.473206 
	C625.185364,982.796448 625.446716,985.067200 625.069641,988.208679 
	C539.827881,988.930725 454.625519,987.720032 368.894714,987.093994 
	C367.970703,980.253540 370.095581,973.834717 371.112091,967.421509 
	C378.503204,920.791138 386.064941,874.187317 393.743591,827.603271 
	C398.039062,801.544189 402.678802,775.541931 407.126160,749.507690 
	C408.695038,740.323669 410.256714,731.136169 411.629700,721.921631 
	C412.755585,714.365295 412.627563,714.326538 405.072357,714.323608 
	C382.908264,714.315002 360.744171,714.322205 338.580078,714.322754 
	C302.417572,714.323669 266.254852,714.243713 230.092667,714.347229 
	C192.929123,714.453613 157.655319,706.316467 124.723557,689.239441 
	C79.831818,665.960449 46.292217,631.331421 23.632872,586.042419 
	C11.095289,560.983643 4.057658,534.491943 1.120634,506.374298 
	C1.000000,492.645782 1.000000,479.291534 1.114480,465.096741 
	C2.033468,458.841309 2.816319,453.423157 3.645982,448.012177 
	C9.242008,411.515472 23.832220,378.711792 45.524555,349.144592 
	C69.606674,316.320129 100.823326,292.116577 138.150131,275.922241 
	C159.511444,266.654572 181.807892,260.949493 205.037155,258.479248 
	C219.361313,256.955933 233.613327,257.347382 247.904556,257.865082 
	C251.407150,257.991913 253.072678,256.939514 253.648544,253.398453 
	C262.135590,201.211243 284.484131,155.539993 321.278564,117.845863 
	C383.884033,53.709568 460.440765,28.378166 549.088867,40.832539 
	C594.295959,47.183781 634.617737,65.694603 670.176575,94.243362 
	C703.117065,120.689949 728.174683,153.346680 745.046509,192.126175 
	C746.935242,196.467163 749.247314,198.245346 754.012878,197.759048 
	C770.869019,196.038971 787.552979,198.127213 804.178528,200.654999 
	C846.100098,207.028809 885.235352,220.706070 920.009766,245.497604 
	C973.232483,283.441284 1005.369507,335.130157 1019.329651,398.568970 
	C1022.261841,411.893677 1023.567688,425.458588 1025.000000,439.000000 
	C1025.000000,449.354218 1025.000000,459.708466 1025.000000,470.531342 
M170.844681,304.416779 
	C135.658508,315.110382 105.917007,334.086243 82.332649,362.482452 
	C55.992538,394.196594 42.618870,431.098297 39.499680,471.780182 
	C37.851818,493.272369 39.769878,514.648743 45.278099,535.642090 
	C55.990410,576.469666 77.095139,610.544312 110.681816,636.421936 
	C146.065811,663.684326 187.007492,675.673157 230.911957,676.403259 
	C291.888123,677.417236 352.893860,676.608826 413.886475,676.769165 
	C418.202240,676.780518 419.790131,675.206787 420.428345,671.334534 
	C424.215973,648.352539 427.421051,625.307861 428.654572,602.021179 
	C428.811493,599.058533 427.774628,597.248718 425.010376,596.310364 
	C420.589722,594.809570 416.108856,593.750488 411.437805,593.183899 
	C401.774078,592.011902 392.164459,593.055176 382.523499,593.189026 
	C362.862793,593.462036 343.195801,593.301453 323.531525,593.266663 
	C321.793793,593.263611 319.857574,593.812378 318.301788,592.200256 
	C318.107208,590.484741 319.359894,589.485291 320.272217,588.374634 
	C334.230164,571.382996 347.991058,554.223572 362.221619,537.463013 
	C407.185638,484.504944 452.350616,431.717560 497.340851,378.781647 
	C499.985901,375.669464 501.596069,375.549225 504.296234,378.599915 
	C516.109436,391.946747 528.346252,404.924805 539.971558,418.430664 
	C570.838806,454.291290 601.395935,490.418732 632.223145,526.314026 
	C649.041077,545.896851 665.182007,566.068298 682.907715,584.868530 
	C684.320007,586.366455 686.116699,587.921082 685.347534,590.502686 
	C684.196777,591.457642 682.834473,591.316284 681.529480,591.309143 
	C665.865906,591.223511 650.201782,591.182312 634.539124,591.004883 
	C618.212158,590.820007 601.868469,590.419556 585.599609,591.958679 
	C581.058716,592.388306 574.970581,590.553711 572.482422,596.258545 
	C570.479980,600.849670 570.769348,606.165771 571.588623,611.074219 
	C574.874207,630.757507 578.821350,650.339294 580.677063,670.234924 
	C581.138977,675.187683 583.119629,676.798401 588.269104,676.780518 
	C644.428650,676.584900 700.589111,676.661926 756.749329,676.661072 
	C776.272278,676.660767 795.580200,674.775208 814.710510,670.717773 
	C855.224915,662.124878 891.348511,644.887390 921.313416,616.014954 
	C965.832336,573.118896 985.751587,519.566833 987.514343,458.676239 
	C988.059143,439.855133 985.654114,421.141479 981.287170,402.776764 
	C955.321411,293.581665 866.434143,236.388245 764.584595,235.285202 
	C760.888672,235.245163 759.943542,236.592728 760.666077,240.115982 
	C762.537964,249.243561 764.434753,258.380188 765.830383,267.587646 
	C767.552368,278.948151 768.977112,290.415924 765.398376,301.711670 
	C762.630005,310.449463 754.614563,315.800049 746.454468,314.683289 
	C736.931946,313.380066 730.100037,305.909576 729.649902,296.494293 
	C729.244873,288.022095 728.788635,279.558960 727.826294,271.115143 
	C721.988464,219.892700 700.918396,175.859589 664.461243,139.594360 
	C628.953857,104.273933 586.074341,83.467415 536.207336,77.051758 
	C504.295715,72.946175 473.075836,75.659073 442.493042,85.296913 
	C400.540649,98.517761 365.422485,122.180893 337.669800,156.279373 
	C309.283630,191.156128 292.495209,230.971924 288.976654,276.055237 
	C287.680817,292.658630 280.975159,298.766388 264.236847,298.270752 
	C262.581268,298.221710 260.935669,297.893982 259.280975,297.745270 
	C247.577988,296.693726 236.133179,294.090424 224.105118,295.036377 
	C206.252411,296.440430 188.821716,299.471497 170.844681,304.416779 
z"/>
</svg>