<svg version="1.1" id="Layer_1" xmlns="http://www.w3.org/2000/svg" xmlns:xlink="http://www.w3.org/1999/xlink" x="0px" y="0px"
	 width="100%" viewBox="0 0 1080 1080" enable-background="new 0 0 1080 1080" xml:space="preserve">
<path fill="#FFFFFF" opacity="1.000000" stroke="none" 
	d="
M766.000000,1.000008 
	C870.960815,1.000000 975.921631,1.000000 1081.000000,1.000000 
	C1081.000000,273.025818 1081.000000,545.051697 1080.610718,817.366089 
	C1077.802490,783.041626 1068.670288,750.340881 1052.695312,719.499756 
	C1004.717346,626.873596 900.669495,573.437805 797.638672,589.363159 
	C737.357300,598.680786 686.260498,626.060486 646.865479,672.775513 
	C588.307922,742.213501 570.929565,822.147888 598.746033,908.147339 
	C629.695984,1003.834045 697.841003,1060.268799 797.156250,1078.305786 
	C802.426758,1079.262939 807.718262,1080.104614 813.000000,1081.000000 
	C542.440918,1081.000000 271.881836,1081.000000 1.000000,1081.000000 
	C1.000000,997.641113 1.000000,914.281799 1.376345,830.602661 
	C1.856580,830.768860 1.982649,831.251465 2.061218,831.741577 
	C8.527499,872.082764 29.673376,902.058960 65.701347,921.338440 
	C83.861038,931.056091 103.519684,934.536255 123.970100,934.529846 
	C251.959396,934.489441 379.948700,934.511353 507.938019,934.496582 
	C510.266022,934.496277 512.602051,934.386841 514.920715,934.177124 
	C533.475891,932.498657 545.034241,913.535461 537.553345,896.490173 
	C532.279846,884.474365 522.454956,879.751160 509.496643,879.762390 
	C380.674164,879.874207 251.851562,879.852417 123.028984,879.817505 
	C83.856850,879.806885 55.965767,851.925781 55.961426,812.857239 
	C55.944435,659.869995 55.955006,506.882782 55.955326,353.895538 
	C55.955330,352.288910 55.955330,350.682312 55.955330,349.056946 
	C330.747681,349.056946 604.984985,349.056946 879.716003,349.056946 
	C879.716003,351.059387 879.716003,352.848236 879.716003,354.637115 
	C879.716003,398.800079 879.709167,442.963074 879.721680,487.126038 
	C879.724304,496.290924 879.501648,505.469055 879.910461,514.617554 
	C880.513306,528.110107 891.530518,538.964294 904.995300,539.886047 
	C922.030334,541.052185 934.587341,528.347351 934.591614,509.749969 
	C934.615662,405.258759 934.641602,300.767517 934.565918,196.276382 
	C934.550293,174.631561 930.232117,153.858856 919.091003,135.090408 
	C895.410034,95.197289 860.142883,74.936668 813.739807,74.181473 
	C805.301392,74.044136 796.858887,74.161903 788.068115,74.161903 
	C788.068115,72.012718 788.068359,70.380592 788.068054,68.748466 
	C788.065918,55.416248 788.164795,42.083008 788.029297,28.752144 
	C787.923035,18.301292 783.376404,10.167615 774.354065,4.787323 
	C771.744507,3.231199 768.794128,2.246615 766.000000,1.000008 
M346.824677,589.123169 
	C334.204132,595.465881 328.605194,606.375061 331.049957,619.859192 
	C333.199005,631.712158 343.145508,640.890076 356.343506,641.522827 
	C369.955353,642.175537 383.628082,641.591980 397.273438,641.468506 
	C398.912354,641.453674 400.597137,641.100342 402.175262,640.622009 
	C415.014343,636.730286 423.529358,623.924561 421.805328,611.206970 
	C419.900757,597.157410 409.274567,587.239014 395.212769,586.936890 
	C382.563629,586.665161 369.901642,586.745911 357.250763,586.973206 
	C354.015839,587.031311 350.801453,588.232361 346.824677,589.123169 
M226.522491,637.108215 
	C237.119629,629.542297 241.298325,617.934082 237.697678,606.063965 
	C234.254547,594.713135 223.984436,587.041992 211.393814,586.882874 
	C198.572067,586.720764 185.731628,586.597107 172.929291,587.149841 
	C168.662521,587.334045 164.065567,588.944885 160.351440,591.141235 
	C149.509583,597.552429 145.073792,609.757141 148.479675,621.795044 
	C151.891434,633.853638 162.237549,641.576477 175.786407,641.798950 
	C187.276413,641.987671 198.795898,642.272644 210.254440,641.643311 
	C215.541016,641.352966 220.713287,638.981873 226.522491,637.108215 
M235.091507,774.491272 
	C244.926346,756.521606 234.578476,735.383179 214.178452,733.712952 
	C199.807007,732.536316 185.199631,732.880859 170.792297,733.893555 
	C156.912964,734.869080 146.529587,748.105042 147.458145,761.559021 
	C148.524124,777.004333 159.700089,787.966553 174.457016,787.997803 
	C186.282410,788.022827 198.113129,787.784973 209.931854,788.067017 
	C220.723907,788.324524 228.867813,784.030212 235.091507,774.491272 
M215.030884,494.969208 
	C229.403397,492.350006 239.303665,480.951538 238.957474,467.421875 
	C238.587524,452.963593 228.299515,441.375000 213.384598,440.543976 
	C199.298950,439.759155 185.075546,439.852600 171.004562,440.852264 
	C157.254745,441.829071 146.862427,454.574219 147.405090,467.817291 
	C148.033203,483.146271 158.902435,494.677032 173.681961,495.019745 
	C187.154510,495.332153 200.641052,495.040833 215.030884,494.969208 
M550.503052,586.829041 
	C545.043030,587.109497 539.376770,586.550537 534.162781,587.831970 
	C520.057617,591.298706 512.322876,603.244507 513.873840,617.834351 
	C515.297241,631.224182 526.185669,641.214844 540.805542,641.723145 
	C553.102112,642.150696 565.440063,642.186218 577.733337,641.711914 
	C593.733765,641.094543 605.344421,628.888062 605.008240,613.845154 
	C604.659241,598.234314 592.880127,587.046143 576.458252,586.847900 
	C568.140564,586.747437 559.820801,586.829529 550.503052,586.829041 
M566.498230,495.171112 
	C570.490479,495.149170 574.487244,495.241425 578.474182,495.084778 
	C592.748047,494.523895 604.251648,483.424957 604.977417,469.611298 
	C605.751648,454.877899 595.734802,441.826263 581.169861,440.831543 
	C566.616760,439.837646 551.890198,439.853729 537.335754,440.841644 
	C522.988342,441.815521 512.903809,454.564209 513.639404,468.589508 
	C514.425964,483.586151 525.252197,494.578766 540.047791,495.058350 
	C548.523804,495.333069 557.014771,495.148773 566.498230,495.171112 
M406.337097,735.972778 
	C403.971313,735.231812 401.612579,733.876709 399.238647,733.849548 
	C383.779144,733.672668 368.256592,732.950134 352.872681,734.052551 
	C339.434692,735.015503 329.595459,748.538269 330.591278,762.042664 
	C331.690582,776.950806 342.836182,787.942261 356.994537,787.992981 
	C369.817230,788.038940 382.654663,788.350342 395.455353,787.817932 
	C400.052734,787.626648 405.134033,786.233093 409.013977,783.815002 
	C427.483551,772.304321 425.758606,746.160828 406.337097,735.972778 
M413.283844,487.807312 
	C422.002502,478.753845 424.593842,468.263489 419.523315,456.661896 
	C414.521942,445.218445 405.002350,440.253998 392.778442,440.176025 
	C381.785156,440.105865 370.761688,439.683624 359.809479,440.358032 
	C354.196747,440.703644 348.126953,442.070709 343.286560,444.794098 
	C332.523743,450.849640 328.222961,463.143005 331.436401,474.985901 
	C334.602661,486.655121 344.662415,494.765411 357.018890,495.050934 
	C369.005676,495.327942 381.004333,495.049011 392.995239,495.206299 
	C400.483002,495.304443 407.059052,493.163544 413.283844,487.807312 
M762.897888,440.406189 
	C748.928589,440.449493 734.906738,439.752319 721.004211,440.737732 
	C706.162781,441.789764 696.081055,454.141266 696.700928,468.485901 
	C697.355774,483.639069 708.324219,494.723785 723.512939,495.067841 
	C735.989014,495.350464 748.480774,495.340088 760.957703,495.081482 
	C775.677124,494.776459 787.293030,483.653473 787.999512,469.661072 
	C788.759460,454.608948 778.804321,442.646301 762.897888,440.406189 
z"/>
<path fill="#010101" opacity="1.000000" stroke="none" 
	d="
M765.541931,1.000008 
	C768.794128,2.246615 771.744507,3.231199 774.354065,4.787323 
	C783.376404,10.167615 787.923035,18.301292 788.029297,28.752144 
	C788.164795,42.083008 788.065918,55.416248 788.068054,68.748466 
	C788.068359,70.380592 788.068115,72.012718 788.068115,74.161903 
	C796.858887,74.161903 805.301392,74.044136 813.739807,74.181473 
	C860.142883,74.936668 895.410034,95.197289 919.091003,135.090408 
	C930.232117,153.858856 934.550293,174.631561 934.565918,196.276382 
	C934.641602,300.767517 934.615662,405.258759 934.591614,509.749969 
	C934.587341,528.347351 922.030334,541.052185 904.995300,539.886047 
	C891.530518,538.964294 880.513306,528.110107 879.910461,514.617554 
	C879.501648,505.469055 879.724304,496.290924 879.721680,487.126038 
	C879.709167,442.963074 879.716003,398.800079 879.716003,354.637115 
	C879.716003,352.848236 879.716003,351.059387 879.716003,349.056946 
	C604.984985,349.056946 330.747681,349.056946 55.955330,349.056946 
	C55.955330,350.682312 55.955330,352.288910 55.955326,353.895538 
	C55.955006,506.882782 55.944435,659.869995 55.961426,812.857239 
	C55.965767,851.925781 83.856850,879.806885 123.028984,879.817505 
	C251.851562,879.852417 380.674164,879.874207 509.496643,879.762390 
	C522.454956,879.751160 532.279846,884.474365 537.553345,896.490173 
	C545.034241,913.535461 533.475891,932.498657 514.920715,934.177124 
	C512.602051,934.386841 510.266022,934.496277 507.938019,934.496582 
	C379.948700,934.511353 251.959396,934.489441 123.970100,934.529846 
	C103.519684,934.536255 83.861038,931.056091 65.701347,921.338440 
	C29.673376,902.058960 8.527499,872.082764 2.061218,831.741577 
	C1.982649,831.251465 1.856580,830.768860 1.376345,830.141357 
	C1.000000,612.979126 1.000000,395.958221 1.359375,178.297150 
	C9.762906,129.947144 36.533783,97.595894 81.732452,80.592255 
	C94.770149,75.687500 108.490974,74.151543 122.383621,74.162125 
	C130.646942,74.168419 138.910248,74.163277 147.378937,74.163277 
	C147.378937,58.612759 147.336685,43.656021 147.393326,28.699661 
	C147.433136,18.190495 152.068176,10.158280 161.062927,4.817881 
	C163.824173,3.178462 167.009094,2.252612 170.000000,1.000002 
	C173.030594,1.000000 176.061188,1.000000 179.707947,1.334639 
	C191.629288,4.228802 198.746796,11.194304 201.494736,22.376808 
	C202.276321,25.557465 202.226120,28.986351 202.244339,32.303123 
	C202.320038,46.090946 202.276169,59.879425 202.276169,73.912399 
	C379.389801,73.912399 556.054504,73.912399 733.122375,73.912399 
	C733.122375,58.611088 733.041321,43.492905 733.150085,28.376089 
	C733.225952,17.832998 738.162231,9.948100 747.121399,4.604988 
	C749.587219,3.134415 752.365234,2.187300 755.000000,1.000000 
	C758.361267,1.000000 761.722595,1.000000 765.541931,1.000008 
M397.500000,293.999023 
	C558.089355,293.999023 718.678772,293.999023 879.432861,293.999023 
	C879.560181,292.944794 879.702881,292.313934 879.703064,291.683014 
	C879.714294,259.189301 879.935242,226.693466 879.628906,194.202621 
	C879.450012,175.234039 872.554932,158.970627 858.415527,145.835587 
	C838.075439,126.940292 813.217468,128.577209 788.454102,129.462341 
	C788.276611,130.091904 788.113281,130.401779 788.112732,130.711975 
	C788.088562,144.541962 788.101929,158.372070 788.046875,172.201904 
	C788.036316,174.857590 788.057861,177.568954 787.559937,180.157562 
	C785.387268,191.453049 775.211853,204.001373 756.592346,202.130035 
	C744.054321,200.869949 733.463623,189.164566 733.197205,175.157990 
	C732.937378,161.498825 733.137756,147.831055 733.112793,134.167099 
	C733.109924,132.575928 732.958740,130.985031 732.874146,129.352295 
	C555.872742,129.352295 379.330231,129.352295 202.275192,129.352295 
	C202.275192,131.450150 202.279419,133.236694 202.274521,135.023209 
	C202.236191,149.019592 202.610825,163.032532 202.053253,177.008255 
	C201.330444,195.125656 182.146423,207.219925 165.203552,200.728928 
	C154.026947,196.447037 147.516342,186.556549 147.406845,173.308136 
	C147.299408,160.311539 147.391968,147.313324 147.372971,134.315857 
	C147.370636,132.713913 147.221878,131.112167 147.124023,129.174866 
	C137.765640,129.174866 128.794693,129.026917 119.829987,129.200775 
	C83.529510,129.904755 56.047829,157.831451 55.969494,194.109970 
	C55.900768,225.937027 55.952087,257.764343 55.965744,289.591553 
	C55.966354,291.016327 56.119160,292.441040 56.208740,293.999023 
	C169.905090,293.999023 283.202545,293.999023 397.500000,293.999023 
z"/>
<path fill="#010101" opacity="1.000000" stroke="none" 
	d="
M813.468628,1081.000000 
	C807.718262,1080.104614 802.426758,1079.262939 797.156250,1078.305786 
	C697.841003,1060.268799 629.695984,1003.834045 598.746033,908.147339 
	C570.929565,822.147888 588.307922,742.213501 646.865479,672.775513 
	C686.260498,626.060486 737.357300,598.680786 797.638672,589.363159 
	C900.669495,573.437805 1004.717346,626.873596 1052.695312,719.499756 
	C1068.670288,750.340881 1077.802490,783.041626 1080.610718,817.827332 
	C1081.000000,829.354248 1081.000000,840.708435 1080.624023,852.717651 
	C1079.885620,856.508362 1079.538940,859.646057 1079.158325,862.779541 
	C1071.875732,922.747192 1045.986816,973.401794 1001.995300,1014.564148 
	C962.824341,1051.215942 916.363098,1072.794434 862.976746,1079.186157 
	C858.969543,1079.666016 854.991577,1080.389648 851.000000,1081.000000 
	C838.645752,1081.000000 826.291565,1081.000000 813.468628,1081.000000 
M659.187927,914.268005 
	C668.757629,934.411194 681.030640,952.642090 696.751770,968.572998 
	C756.207153,1028.822144 846.220032,1043.405029 921.621399,1004.871887 
	C995.924194,966.900146 1037.144775,884.631287 1023.129456,802.280212 
	C1008.755493,717.821411 941.139648,652.547180 856.817993,643.284912 
	C792.244568,636.191833 736.928406,656.653809 692.383179,704.045898 
	C639.718140,760.076843 626.660156,844.196594 659.187927,914.268005 
z"/>
<path fill="#FFFFFF" opacity="1.000000" stroke="none" 
	d="
M754.531372,1.000000 
	C752.365234,2.187300 749.587219,3.134415 747.121399,4.604988 
	C738.162231,9.948100 733.225952,17.832998 733.150085,28.376089 
	C733.041321,43.492905 733.122375,58.611088 733.122375,73.912399 
	C556.054504,73.912399 379.389801,73.912399 202.276169,73.912399 
	C202.276169,59.879425 202.320038,46.090946 202.244339,32.303123 
	C202.226120,28.986351 202.276321,25.557465 201.494736,22.376808 
	C198.746796,11.194304 191.629288,4.228802 180.162064,1.334639 
	C371.354218,1.000000 562.708435,1.000000 754.531372,1.000000 
z"/>
<path fill="#FEFEFE" opacity="1.000000" stroke="none" 
	d="
M169.531342,1.000002 
	C167.009094,2.252612 163.824173,3.178462 161.062927,4.817881 
	C152.068176,10.158280 147.433136,18.190495 147.393326,28.699661 
	C147.336685,43.656021 147.378937,58.612759 147.378937,74.163277 
	C138.910248,74.163277 130.646942,74.168419 122.383621,74.162125 
	C108.490974,74.151543 94.770149,75.687500 81.732452,80.592255 
	C36.533783,97.595894 9.762906,129.947144 1.359375,177.828491 
	C1.000000,119.074669 1.000000,60.149338 1.000000,1.000000 
	C57.020695,1.000000 113.041687,1.000000 169.531342,1.000002 
z"/>
<path fill="#FEFEFE" opacity="1.000000" stroke="none" 
	d="
M851.468628,1081.000000 
	C854.991577,1080.389648 858.969543,1079.666016 862.976746,1079.186157 
	C916.363098,1072.794434 962.824341,1051.215942 1001.995300,1014.564148 
	C1045.986816,973.401794 1071.875732,922.747192 1079.158325,862.779541 
	C1079.538940,859.646057 1079.885620,856.508362 1080.624023,853.186340 
	C1081.000000,928.927368 1081.000000,1004.854736 1081.000000,1081.000000 
	C1004.645935,1081.000000 928.291626,1081.000000 851.468628,1081.000000 
z"/>
<path fill="#020202" opacity="1.000000" stroke="none" 
	d="
M347.201141,589.015747 
	C350.801453,588.232361 354.015839,587.031311 357.250763,586.973206 
	C369.901642,586.745911 382.563629,586.665161 395.212769,586.936890 
	C409.274567,587.239014 419.900757,597.157410 421.805328,611.206970 
	C423.529358,623.924561 415.014343,636.730286 402.175262,640.622009 
	C400.597137,641.100342 398.912354,641.453674 397.273438,641.468506 
	C383.628082,641.591980 369.955353,642.175537 356.343506,641.522827 
	C343.145508,640.890076 333.199005,631.712158 331.049957,619.859192 
	C328.605194,606.375061 334.204132,595.465881 347.201141,589.015747 
z"/>
<path fill="#020202" opacity="1.000000" stroke="none" 
	d="
M226.229935,637.331177 
	C220.713287,638.981873 215.541016,641.352966 210.254440,641.643311 
	C198.795898,642.272644 187.276413,641.987671 175.786407,641.798950 
	C162.237549,641.576477 151.891434,633.853638 148.479675,621.795044 
	C145.073792,609.757141 149.509583,597.552429 160.351440,591.141235 
	C164.065567,588.944885 168.662521,587.334045 172.929291,587.149841 
	C185.731628,586.597107 198.572067,586.720764 211.393814,586.882874 
	C223.984436,587.041992 234.254547,594.713135 237.697678,606.063965 
	C241.298325,617.934082 237.119629,629.542297 226.229935,637.331177 
z"/>
<path fill="#020202" opacity="1.000000" stroke="none" 
	d="
M234.930450,774.821899 
	C228.867813,784.030212 220.723907,788.324524 209.931854,788.067017 
	C198.113129,787.784973 186.282410,788.022827 174.457016,787.997803 
	C159.700089,787.966553 148.524124,777.004333 147.458145,761.559021 
	C146.529587,748.105042 156.912964,734.869080 170.792297,733.893555 
	C185.199631,732.880859 199.807007,732.536316 214.178452,733.712952 
	C234.578476,735.383179 244.926346,756.521606 234.930450,774.821899 
z"/>
<path fill="#020202" opacity="1.000000" stroke="none" 
	d="
M214.576157,494.992432 
	C200.641052,495.040833 187.154510,495.332153 173.681961,495.019745 
	C158.902435,494.677032 148.033203,483.146271 147.405090,467.817291 
	C146.862427,454.574219 157.254745,441.829071 171.004562,440.852264 
	C185.075546,439.852600 199.298950,439.759155 213.384598,440.543976 
	C228.299515,441.375000 238.587524,452.963593 238.957474,467.421875 
	C239.303665,480.951538 229.403397,492.350006 214.576157,494.992432 
z"/>
<path fill="#020202" opacity="1.000000" stroke="none" 
	d="
M551.002502,586.829041 
	C559.820801,586.829529 568.140564,586.747437 576.458252,586.847900 
	C592.880127,587.046143 604.659241,598.234314 605.008240,613.845154 
	C605.344421,628.888062 593.733765,641.094543 577.733337,641.711914 
	C565.440063,642.186218 553.102112,642.150696 540.805542,641.723145 
	C526.185669,641.214844 515.297241,631.224182 513.873840,617.834351 
	C512.322876,603.244507 520.057617,591.298706 534.162781,587.831970 
	C539.376770,586.550537 545.043030,587.109497 551.002502,586.829041 
z"/>
<path fill="#020202" opacity="1.000000" stroke="none" 
	d="
M565.998596,495.171143 
	C557.014771,495.148773 548.523804,495.333069 540.047791,495.058350 
	C525.252197,494.578766 514.425964,483.586151 513.639404,468.589508 
	C512.903809,454.564209 522.988342,441.815521 537.335754,440.841644 
	C551.890198,439.853729 566.616760,439.837646 581.169861,440.831543 
	C595.734802,441.826263 605.751648,454.877899 604.977417,469.611298 
	C604.251648,483.424957 592.748047,494.523895 578.474182,495.084778 
	C574.487244,495.241425 570.490479,495.149170 565.998596,495.171143 
z"/>
<path fill="#020202" opacity="1.000000" stroke="none" 
	d="
M406.697174,736.093262 
	C425.758606,746.160828 427.483551,772.304321 409.013977,783.815002 
	C405.134033,786.233093 400.052734,787.626648 395.455353,787.817932 
	C382.654663,788.350342 369.817230,788.038940 356.994537,787.992981 
	C342.836182,787.942261 331.690582,776.950806 330.591278,762.042664 
	C329.595459,748.538269 339.434692,735.015503 352.872681,734.052551 
	C368.256592,732.950134 383.779144,733.672668 399.238647,733.849548 
	C401.612579,733.876709 403.971313,735.231812 406.697174,736.093262 
z"/>
<path fill="#020202" opacity="1.000000" stroke="none" 
	d="
M413.007599,488.039368 
	C407.059052,493.163544 400.483002,495.304443 392.995239,495.206299 
	C381.004333,495.049011 369.005676,495.327942 357.018890,495.050934 
	C344.662415,494.765411 334.602661,486.655121 331.436401,474.985901 
	C328.222961,463.143005 332.523743,450.849640 343.286560,444.794098 
	C348.126953,442.070709 354.196747,440.703644 359.809479,440.358032 
	C370.761688,439.683624 381.785156,440.105865 392.778442,440.176025 
	C405.002350,440.253998 414.521942,445.218445 419.523315,456.661896 
	C424.593842,468.263489 422.002502,478.753845 413.007599,488.039368 
z"/>
<path fill="#020202" opacity="1.000000" stroke="none" 
	d="
M763.334351,440.476440 
	C778.804321,442.646301 788.759460,454.608948 787.999512,469.661072 
	C787.293030,483.653473 775.677124,494.776459 760.957703,495.081482 
	C748.480774,495.340088 735.989014,495.350464 723.512939,495.067841 
	C708.324219,494.723785 697.355774,483.639069 696.700928,468.485901 
	C696.081055,454.141266 706.162781,441.789764 721.004211,440.737732 
	C734.906738,439.752319 748.928589,440.449493 763.334351,440.476440 
z"/>
<path fill="#FFFFFF" opacity="1.000000" stroke="none" 
	d="
M397.000000,293.999023 
	C283.202545,293.999023 169.905090,293.999023 56.208740,293.999023 
	C56.119160,292.441040 55.966354,291.016327 55.965744,289.591553 
	C55.952087,257.764343 55.900768,225.937027 55.969494,194.109970 
	C56.047829,157.831451 83.529510,129.904755 119.829987,129.200775 
	C128.794693,129.026917 137.765640,129.174866 147.124023,129.174866 
	C147.221878,131.112167 147.370636,132.713913 147.372971,134.315857 
	C147.391968,147.313324 147.299408,160.311539 147.406845,173.308136 
	C147.516342,186.556549 154.026947,196.447037 165.203552,200.728928 
	C182.146423,207.219925 201.330444,195.125656 202.053253,177.008255 
	C202.610825,163.032532 202.236191,149.019592 202.274521,135.023209 
	C202.279419,133.236694 202.275192,131.450150 202.275192,129.352295 
	C379.330231,129.352295 555.872742,129.352295 732.874146,129.352295 
	C732.958740,130.985031 733.109924,132.575928 733.112793,134.167099 
	C733.137756,147.831055 732.937378,161.498825 733.197205,175.157990 
	C733.463623,189.164566 744.054321,200.869949 756.592346,202.130035 
	C775.211853,204.001373 785.387268,191.453049 787.559937,180.157562 
	C788.057861,177.568954 788.036316,174.857590 788.046875,172.201904 
	C788.101929,158.372070 788.088562,144.541962 788.112732,130.711975 
	C788.113281,130.401779 788.276611,130.091904 788.454102,129.462341 
	C813.217468,128.577209 838.075439,126.940292 858.415527,145.835587 
	C872.554932,158.970627 879.450012,175.234039 879.628906,194.202621 
	C879.935242,226.693466 879.714294,259.189301 879.703064,291.683014 
	C879.702881,292.313934 879.560181,292.944794 879.432861,293.999023 
	C718.678772,293.999023 558.089355,293.999023 397.000000,293.999023 
z"/>
<path fill="#FEFEFE" opacity="1.000000" stroke="none" 
	d="
M659.067261,913.909180 
	C626.660156,844.196594 639.718140,760.076843 692.383179,704.045898 
	C736.928406,656.653809 792.244568,636.191833 856.817993,643.284912 
	C941.139648,652.547180 1008.755493,717.821411 1023.129456,802.280212 
	C1037.144775,884.631287 995.924194,966.900146 921.621399,1004.871887 
	C846.220032,1043.405029 756.207153,1028.822144 696.751770,968.572998 
	C681.030640,952.642090 668.757629,934.411194 659.067261,913.909180 
M861.255310,791.500122 
	C861.202759,768.343567 861.503357,745.178894 860.969116,722.033508 
	C860.632324,707.440857 848.072510,696.360291 833.568604,696.580261 
	C818.740967,696.805054 806.528198,708.280334 806.435913,723.000488 
	C806.205078,759.818848 806.324463,796.639648 806.398621,833.459351 
	C806.415039,841.633911 809.456116,848.455139 815.458557,854.318237 
	C829.517395,868.050781 843.184326,882.183594 857.091125,896.072998 
	C867.809143,906.777527 878.309509,917.735657 889.534973,927.886108 
	C900.407471,937.717529 917.548279,936.239075 927.325500,925.536804 
	C937.222046,914.703918 936.748413,898.076660 926.311462,887.648254 
	C907.574524,868.926636 889.119141,849.913147 870.017029,831.572693 
	C863.531494,825.345825 859.892700,819.147888 861.111145,809.975037 
	C861.872253,804.244812 861.254761,798.331421 861.255310,791.500122 
z"/>
<path fill="#010101" opacity="1.000000" stroke="none" 
	d="
M861.255615,792.000183 
	C861.254761,798.331421 861.872253,804.244812 861.111145,809.975037 
	C859.892700,819.147888 863.531494,825.345825 870.017029,831.572693 
	C889.119141,849.913147 907.574524,868.926636 926.311462,887.648254 
	C936.748413,898.076660 937.222046,914.703918 927.325500,925.536804 
	C917.548279,936.239075 900.407471,937.717529 889.534973,927.886108 
	C878.309509,917.735657 867.809143,906.777527 857.091125,896.072998 
	C843.184326,882.183594 829.517395,868.050781 815.458557,854.318237 
	C809.456116,848.455139 806.415039,841.633911 806.398621,833.459351 
	C806.324463,796.639648 806.205078,759.818848 806.435913,723.000488 
	C806.528198,708.280334 818.740967,696.805054 833.568604,696.580261 
	C848.072510,696.360291 860.632324,707.440857 860.969116,722.033508 
	C861.503357,745.178894 861.202759,768.343567 861.255615,792.000183 
z"/>
</svg>